<?xml version="1.0" encoding="UTF-8"?>
<svg id="b" data-name="Layer 2" xmlns="http://www.w3.org/2000/svg" width="238.503" height="33.096" viewBox="0 0 238.503 33.096">
  <g id="c" data-name="Layer 1">
    <g>
      <path d="m0,0h9.066v25.854h12.087v7.242H0V0Z" fill="#a3a3a3"/>
      <path d="m30.941,0h13.575l8.73,33.096h-9.45l-1.486-6.475h-9.93l-1.486,6.475h-8.634L30.941,0Zm3.022,19.906h6.811l-3.358-14.677-3.453,14.677Z" fill="#a3a3a3"/>
      <path d="m55.071,28.012V5.085l5.083-5.085h17.796l5.132,5.085v6.955h-9.114v-3.885l-1.486-1.487h-6.667l-1.631,1.631v16.691l1.631,1.584h6.667l1.486-1.44v-4.172h9.114v7.051l-5.132,5.085h-17.796l-5.083-5.085Z" fill="#a3a3a3"/>
      <path d="m87.305,0h23.312l4.845,4.796v10.505l-4.221,4.172,4.941,13.622h-9.45l-4.172-12.279h-6.187v12.279h-9.066V0Zm17.748,14.581l1.294-1.342v-5.756l-1.294-1.296h-8.682v8.394h8.682Z" fill="#a3a3a3"/>
      <path d="m119.062,28.012V5.085l5.083-5.085h18.132l5.132,5.085v22.927l-5.132,5.085h-18.132l-5.083-5.085Zm17.603-1.583l1.63-1.631V8.298l-1.63-1.631h-6.859l-1.631,1.631v16.499l1.631,1.631h6.859Z" fill="#a3a3a3"/>
      <path d="m151.442,28.444v-5.66h9.065v2.734l1.055,1.006h7.53l.96-.959v-4.796l-.719-.719h-13.67l-4.077-4.126V4.796l4.796-4.796h18.035l4.652,4.652v5.66h-9.065v-2.734l-1.055-1.055h-7.291l-.96,1.007v4.605l.719.768h13.671l4.077,4.077v11.319l-4.798,4.796h-18.275l-4.652-4.652Z" fill="#a3a3a3"/>
      <path d="m182.909,28.444v-5.66h9.065v2.734l1.055,1.006h7.53l.96-.959v-4.796l-.719-.719h-13.67l-4.077-4.126V4.796l4.796-4.796h18.035l4.652,4.652v5.66h-9.065v-2.734l-1.055-1.055h-7.291l-.96,1.007v4.605l.719.768h13.671l4.077,4.077v11.319l-4.798,4.796h-18.275l-4.652-4.652Z" fill="#a3a3a3"/>
      <path d="m215.144,0h23.264v6.859h-14.198v5.948h12.807v6.859h-12.807v6.572h14.293v6.859h-23.359V0Z" fill="#a3a3a3"/>
    </g>
  </g>
</svg>