<?xml version="1.0" encoding="UTF-8"?>
<svg id="b" data-name="Layer 2" xmlns="http://www.w3.org/2000/svg" width="238.503" height="22.799" viewBox="0 0 238.503 22.799">
  <g id="c" data-name="Layer 1">
    <g>
      <path d="m6.864.234v16.773h15.367v5.557H0V.234h6.864Z" fill="#a3a3a3"/>
      <path d="m47.039,18.514h-14.429l-2.209,4.051h-7.567L35.288.234h9.173l12.187,22.33h-7.499l-2.11-4.051Zm-2.477-4.621l-4.754-8.838-4.821,8.838h9.575Z" fill="#a3a3a3"/>
      <path d="m79.882,8.102c-.023-.691-.124-1.216-.301-1.574-.18-.356-.514-.613-1.005-.77-.492-.156-1.189-.239-2.092-.251-.905-.011-2.093-.016-3.566-.016-1.674,0-3.026.016-4.051.05-1.028.033-1.83.195-2.411.485s-.971.776-1.172,1.456c-.2.681-.301,1.669-.301,2.963,0,1.652.05,2.93.151,3.834.1.904.402,1.573.904,2.008.502.436,1.277.692,2.327.77,1.049.079,2.511.117,4.386.117h3.515c.938,0,1.679-.089,2.226-.267s.938-.485,1.172-.921c.234-.435.352-1.088.352-1.959h6.696c0,.18.004.341.016.486.011.145.016.307.016.485,0,1.138-.072,2.143-.218,3.012-.145.871-.397,1.607-.753,2.211-.357.602-.837,1.082-1.439,1.439-.604.357-1.351.581-2.243.669-1.451.157-2.819.273-4.101.352-1.284.078-2.46.117-3.532.117-3.505,0-6.775-.101-9.81-.301-1.184-.067-2.188-.323-3.014-.77-.826-.446-1.495-1.099-2.009-1.959-.514-.859-.887-1.936-1.122-3.23s-.352-2.846-.352-4.654c0-1.138.011-2.181.034-3.13.022-.949.105-1.82.251-2.611s.368-1.517.669-2.177c.302-.657.732-1.255,1.289-1.791s1.21-.949,1.959-1.239c.747-.289,1.623-.502,2.628-.635,1.005-.135,2.143-.218,3.416-.251,1.272-.034,2.7-.05,4.285-.05,2.745,0,5.005.056,6.78.167,1.773.113,3.175.425,4.201.938,1.026.514,1.742,1.318,2.143,2.411.402,1.093.613,2.622.636,4.587h-6.562Z" fill="#a3a3a3"/>
      <path d="m96.52,16.806v5.759h-6.863V.234h20.757c1.384,0,2.549.128,3.499.384.948.257,1.718.665,2.309,1.222s1.015,1.284,1.273,2.176c.256.893.384,1.987.384,3.281,0,1.34-.106,2.4-.318,3.181-.213.781-.525,1.394-.938,1.841s-.92.781-1.524,1.005c-.602.223-1.283.446-2.042.669.624.134,1.216.251,1.775.352.558.101,1.043.296,1.456.586s.737.709.972,1.255.352,1.334.352,2.36v4.018h-6.864v-2.947c0-.958-.195-1.667-.586-2.125-.39-.458-1.176-.687-2.36-.687h-11.283Zm0-5.423h10.212c.179,0,.323.005.435.016.112.012.256.018.435.018.804,0,1.434-.045,1.892-.135.458-.089.804-.251,1.038-.485s.379-.552.435-.954.083-.915.083-1.54c0-.602-.061-1.077-.184-1.423-.123-.345-.33-.613-.619-.803-.29-.19-.681-.307-1.172-.352s-1.104-.067-1.841-.067h-10.713v5.725Z" fill="#a3a3a3"/>
      <path d="m120.323,13.525c0-2.12.028-3.945.084-5.474.055-1.528.267-2.817.636-3.867.368-1.048.948-1.88,1.741-2.494.792-.613,1.925-1.055,3.398-1.322,1.005-.179,2.828-.285,5.474-.318,2.644-.034,6.11-.05,10.396-.05,1.405,0,2.622.123,3.649.368s1.892.631,2.595,1.155c.702.525,1.255,1.212,1.657,2.059.401.848.68,1.874.837,3.08.089.624.139,1.439.15,2.444s.016,2.176.016,3.515c0,1.629-.1,3.008-.301,4.134-.2,1.127-.547,2.07-1.037,2.829-.492.759-1.144,1.351-1.959,1.775s-1.836.742-3.064.954c-1.227.213-2.673.345-4.335.402-1.664.055-3.6.083-5.809.083-2.5,0-4.642-.072-6.428-.218-1.786-.145-3.248-.524-4.386-1.138-1.138-.613-1.975-1.54-2.511-2.779-.536-1.238-.804-2.951-.804-5.139Zm6.931-3.08c0,1.138.016,2.099.05,2.88.033.781.123,1.428.267,1.941.146.514.368.905.67,1.172.301.268.724.469,1.272.602.547.134,1.227.213,2.042.234.815.023,1.802.034,2.963.034,2.321,0,4.129-.028,5.423-.084,1.295-.055,2.249-.273,2.862-.653.615-.379.988-.998,1.122-1.858.134-.859.202-2.081.202-3.666,0-1.294-.062-2.315-.185-3.063s-.384-1.306-.787-1.674c-.401-.368-.994-.597-1.775-.687-.781-.089-1.818-.134-3.113-.134h-5.692c-1.45,0-2.567.139-3.348.418s-1.306.765-1.573,1.456c-.268.692-.402,1.72-.402,3.08Z" fill="#a3a3a3"/>
      <path d="m173.521,7.063c-.022-.513-.112-.92-.267-1.221-.157-.301-.431-.525-.82-.669-.391-.146-.904-.24-1.54-.285s-1.456-.067-2.46-.067h-.436c-.112,0-.256.011-.435.033-1.451.067-2.667.101-3.649.101s-1.775.05-2.377.151c-.602.1-1.038.284-1.306.552-.268.267-.402.714-.402,1.339,0,.559.202.977.602,1.255.402.279.96.431,1.674.452,1.005.023,1.959.045,2.863.067.904.023,1.746.034,2.527.034.469,0,.954-.005,1.456-.018.503-.011.977-.016,1.423-.016,1.852,0,3.459.05,4.821.151,1.362.1,2.483.374,3.365.819.882.447,1.535,1.128,1.959,2.043s.636,2.199.636,3.85c0,1.16-.113,2.143-.335,2.946-.223.804-.575,1.468-1.055,1.993-.48.524-1.088.931-1.824,1.221-.737.29-1.619.491-2.645.602-.602.067-1.764.146-3.481.234-1.72.089-3.917.134-6.596.134-2.634,0-4.783-.078-6.445-.234-1.663-.156-2.873-.502-3.632-1.037-.536-.379-.932-.787-1.189-1.222-.256-.435-.435-.897-.536-1.389-.1-.491-.15-1.021-.15-1.591v-1.858h6.729v.77c0,.268.056.508.168.72.111.213.312.402.602.57.289.168.736.273,1.339.318.29.023.831.045,1.625.067.792.023,1.791.034,2.996.034,1.562,0,2.84-.011,3.834-.034.992-.022,1.768-.1,2.327-.234.558-.134.937-.334,1.138-.602.2-.267.301-.658.301-1.172,0-.49-.101-.875-.301-1.155-.202-.279-.492-.48-.871-.602-.38-.123-.831-.195-1.356-.218-.525-.022-1.099-.033-1.724-.033-2.188-.022-4.129-.028-5.825-.018-1.696.012-3.169-.027-4.419-.117-1.25-.089-2.305-.245-3.164-.468-.86-.223-1.551-.581-2.076-1.071s-.904-1.139-1.138-1.942c-.234-.804-.352-1.82-.352-3.046,0-1.093.094-2.043.285-2.846.19-.804.507-1.479.954-2.025.446-.547,1.032-.972,1.757-1.273s1.625-.518,2.696-.653c.714-.089,1.869-.177,3.465-.267,1.595-.089,3.598-.134,6.009-.134,1.272,0,2.415.005,3.432.016,1.015.011,1.919.061,2.711.15.792.09,1.49.218,2.092.386.604.168,1.127.418,1.574.754.491.357.875.736,1.155,1.138s.485.837.62,1.306c.134.469.222.976.267,1.523.045.548.067,1.145.067,1.791h-6.662Z" fill="#a3a3a3"/>
      <path d="m203.552,7.063c-.022-.513-.112-.92-.267-1.221-.157-.301-.431-.525-.82-.669-.391-.146-.904-.24-1.54-.285s-1.456-.067-2.46-.067h-.436c-.112,0-.256.011-.435.033-1.451.067-2.667.101-3.649.101s-1.775.05-2.377.151c-.602.1-1.038.284-1.306.552-.268.267-.402.714-.402,1.339,0,.559.202.977.602,1.255.402.279.96.431,1.674.452,1.005.023,1.959.045,2.863.067.904.023,1.746.034,2.527.034.469,0,.954-.005,1.456-.018.503-.011.977-.016,1.423-.016,1.852,0,3.459.05,4.821.151,1.362.1,2.483.374,3.365.819.882.447,1.535,1.128,1.959,2.043s.636,2.199.636,3.85c0,1.16-.113,2.143-.335,2.946-.223.804-.575,1.468-1.055,1.993-.48.524-1.088.931-1.824,1.221-.737.29-1.619.491-2.645.602-.602.067-1.764.146-3.481.234-1.72.089-3.917.134-6.596.134-2.634,0-4.783-.078-6.445-.234-1.663-.156-2.873-.502-3.632-1.037-.536-.379-.932-.787-1.189-1.222-.256-.435-.435-.897-.536-1.389-.1-.491-.15-1.021-.15-1.591v-1.858h6.729v.77c0,.268.056.508.168.72.111.213.312.402.602.57.289.168.736.273,1.339.318.29.023.831.045,1.625.067.792.023,1.791.034,2.996.034,1.562,0,2.84-.011,3.834-.034.992-.022,1.768-.1,2.327-.234.558-.134.937-.334,1.138-.602.2-.267.301-.658.301-1.172,0-.49-.101-.875-.301-1.155-.202-.279-.492-.48-.871-.602-.38-.123-.831-.195-1.356-.218-.525-.022-1.099-.033-1.724-.033-2.188-.022-4.129-.028-5.825-.018-1.696.012-3.169-.027-4.419-.117-1.25-.089-2.305-.245-3.164-.468-.86-.223-1.551-.581-2.076-1.071s-.904-1.139-1.138-1.942c-.234-.804-.352-1.82-.352-3.046,0-1.093.094-2.043.285-2.846.19-.804.507-1.479.954-2.025.446-.547,1.032-.972,1.757-1.273s1.625-.518,2.696-.653c.714-.089,1.869-.177,3.465-.267,1.595-.089,3.598-.134,6.009-.134,1.272,0,2.415.005,3.432.016,1.015.011,1.919.061,2.711.15.792.09,1.49.218,2.092.386.604.168,1.127.418,1.574.754.491.357.875.736,1.155,1.138s.485.837.62,1.306c.134.469.222.976.267,1.523.045.548.067,1.145.067,1.791h-6.662Z" fill="#a3a3a3"/>
      <path d="m213.595,22.565V.234h24.909v5.021h-18.18v3.883h16.975v4.42h-16.975v3.984h18.18v5.021h-24.909Z" fill="#a3a3a3"/>
    </g>
  </g>
</svg>