<?xml version="1.0" encoding="UTF-8"?>
<svg id="b" data-name="Layer 2" xmlns="http://www.w3.org/2000/svg" width="238.503" height="44.463" viewBox="0 0 238.503 44.463">
  <g id="c" data-name="Layer 1">
    <g>
      <path d="m0,44.463v-8.208h2.349V8.208H0V0h12.934v8.208h-2.349v28.047h6.255v-3.594h8.236v11.802H0Z" fill="#a3a3a3"/>
      <path d="m46.557,44.463v-8.208h2.321l-.708-3.594h-7.868l-.708,3.594h2.377v8.208h-12.934v-8.208h2.18L38.463,0h11.548l7.245,36.255h2.236v8.208h-12.934Zm-4.585-20.01h4.557l-2.292-11.405-2.265,11.405Z" fill="#a3a3a3"/>
      <path d="m88.7,39.821l-5.378,4.642h-14.632l-5.236-4.642V4.67l5.236-4.67h14.632l5.378,4.698v7.104h-8.208v-3.594h-8.83v28.047h8.83v-3.594h8.208v7.16Z" fill="#a3a3a3"/>
      <path d="m121.473,44.463h-8.802l-6.99-18.113h-2.435v9.905h2.349v8.208h-12.934v-8.208h2.349V8.208h-2.349V0h22.076l5.236,4.67v16.331l-5.604,5.235,3.905,10.019h3.198v8.208Zm-18.227-26.349h8.519v-9.905h-8.519v9.905Z" fill="#a3a3a3"/>
      <path d="m151.248,39.821l-5.293,4.642h-15.283l-5.236-4.642V4.67l5.236-4.67h15.283l5.293,4.67v35.151Zm-8.236-3.566V8.208h-9.368v28.047h9.368Z" fill="#a3a3a3"/>
      <path d="m179.918,39.821l-5.235,4.642h-14.18l-5.293-4.642v-7.16h8.208v3.594h8.293v-9.905h-11.209l-5.293-4.67V4.67l5.293-4.67h14.18l5.235,4.642v7.16h-8.207v-3.594h-8.293v9.905h11.265l5.235,4.67v17.037Z" fill="#a3a3a3"/>
      <path d="m208.588,39.821l-5.235,4.642h-14.18l-5.293-4.642v-7.16h8.208v3.594h8.293v-9.905h-11.209l-5.293-4.67V4.67l5.293-4.67h14.18l5.235,4.642v7.16h-8.207v-3.594h-8.293v9.905h11.265l5.235,4.67v17.037Z" fill="#a3a3a3"/>
      <path d="m212.549,44.463v-8.208h2.349V8.208h-2.349V0h25.954v11.802h-8.208v-3.594h-7.189v9.905h11.236v8.236h-11.236v9.905h7.189v-3.594h8.208v11.802h-25.954Z" fill="#a3a3a3"/>
    </g>
  </g>
</svg>