<?xml version="1.0" encoding="UTF-8"?>
<svg id="b" data-name="Layer 2" xmlns="http://www.w3.org/2000/svg" width="238.503" height="35.813" viewBox="0 0 238.503 35.813">
  <g id="c" data-name="Layer 1">
    <g>
      <path d="m7.084.197v28.728h14.856v6.69H0V.197h7.084Z" fill="#a3a3a3"/>
      <path d="m31.535,35.616h-7.33L35.618.197h8.264l11.413,35.419h-7.625l-2.312-7.969h-11.462l-2.361,7.969Zm4.329-14.659h7.576l-3.739-12.987-3.837,12.987Z" fill="#a3a3a3"/>
      <path d="m76.548,8.363c0-1.082-.59-1.672-1.673-1.672h-7.674c-1.082,0-1.673.59-1.673,1.672v19.087c0,1.082.591,1.672,1.673,1.672h7.674c1.083,0,1.673-.59,1.673-1.672v-4.329h7.084v5.706c0,4.132-2.853,6.986-6.985,6.986h-11.216c-4.132,0-6.985-2.853-6.985-6.986V6.986c0-4.132,2.853-6.986,6.985-6.986h11.216c4.132,0,6.985,2.853,6.985,6.986v5.706h-7.084v-4.329Z" fill="#a3a3a3"/>
      <path d="m108.428,35.616l-5.707-13.134h-5.706v13.134h-7.084V.197h18.053c4.132,0,6.985,2.853,6.985,6.985v8.314c0,3.345-1.869,5.854-4.82,6.69l5.903,13.429h-7.625Zm-.542-27.056c0-1.082-.59-1.673-1.672-1.673h-9.199v9.002h9.199c1.082,0,1.672-.591,1.672-1.673v-5.657Z" fill="#a3a3a3"/>
      <path d="m139.913,0c4.132,0,6.985,2.853,6.985,6.986v21.841c0,4.132-2.853,6.986-6.985,6.986h-11.855c-4.132,0-6.986-2.853-6.986-6.986V6.986c0-4.132,2.853-6.986,6.986-6.986h11.855Zm-.099,8.363c0-1.082-.59-1.672-1.673-1.672h-8.313c-1.082,0-1.673.59-1.673,1.672v19.087c0,1.082.591,1.672,1.673,1.672h8.313c1.083,0,1.673-.59,1.673-1.672V8.363Z" fill="#a3a3a3"/>
      <path d="m170.366,8.363c0-1.082-.591-1.672-1.673-1.672h-7.084c-1.082,0-1.673.59-1.673,1.672v3.345c0,1.082.591,1.427,1.673,1.672l9.15,1.968c3.837.836,7.084,3.148,7.084,7.084v6.395c0,4.132-2.853,6.986-6.986,6.986h-11.019c-4.132,0-6.985-2.853-6.985-6.986v-4.525h6.887v3.148c0,1.082.59,1.672,1.672,1.672h7.674c1.082,0,1.673-.59,1.673-1.672v-3.739c0-1.082-.591-1.427-1.673-1.673l-9.15-1.967c-3.837-.837-7.084-3.148-7.084-7.084v-6.002c0-4.132,2.853-6.986,6.985-6.986h10.429c4.132,0,6.985,2.853,6.985,6.986v4.132h-6.887v-2.755Z" fill="#a3a3a3"/>
      <path d="m201.115,8.363c0-1.082-.591-1.672-1.673-1.672h-7.084c-1.082,0-1.673.59-1.673,1.672v3.345c0,1.082.591,1.427,1.673,1.672l9.15,1.968c3.837.836,7.084,3.148,7.084,7.084v6.395c0,4.132-2.853,6.986-6.986,6.986h-11.019c-4.132,0-6.985-2.853-6.985-6.986v-4.525h6.887v3.148c0,1.082.59,1.672,1.672,1.672h7.674c1.082,0,1.673-.59,1.673-1.672v-3.739c0-1.082-.591-1.427-1.673-1.673l-9.15-1.967c-3.837-.837-7.084-3.148-7.084-7.084v-6.002c0-4.132,2.853-6.986,6.985-6.986h10.429c4.132,0,6.985,2.853,6.985,6.986v4.132h-6.887v-2.755Z" fill="#a3a3a3"/>
      <path d="m238.503.197v6.69h-16.086v7.28h13.036v6.691h-13.036v8.067h16.086v6.69h-23.169V.197h23.169Z" fill="#a3a3a3"/>
    </g>
  </g>
</svg>