<?xml version="1.0" encoding="UTF-8"?>
<svg id="b" data-name="Layer 2" xmlns="http://www.w3.org/2000/svg" width="238.503" height="61.934" viewBox="0 0 238.503 61.934">
  <g id="c" data-name="Layer 1">
    <g>
      <path d="m19.667,61.934H0V0h8.28v54.43h11.387v7.504Z" fill="#a3a3a3"/>
      <path d="m32.26,61.934h-8.282V10.609c0-7.074,3.306-10.609,9.92-10.609h6.21c6.613,0,9.92,3.535,9.92,10.609v51.325h-8.28v-22.687h-9.488v22.687Zm9.488-30.191V11.127c0-2.416-1.208-3.622-3.624-3.622h-2.242c-2.416,0-3.622,1.206-3.622,3.622v20.616h9.488Z" fill="#a3a3a3"/>
      <path d="m82.117,47.442v3.967c0,7.018-3.307,10.524-9.92,10.524h-5.347c-6.614,0-9.92-3.507-9.92-10.524V10.523c0-7.015,3.306-10.523,9.92-10.523h5.347c6.613,0,9.92,3.508,9.92,10.523v6.987h-8.28v-6.383c0-2.416-1.238-3.622-3.709-3.622h-1.64c-2.186,0-3.277,1.206-3.277,3.622v39.679c0,2.416,1.091,3.624,3.277,3.624h2.07c2.185,0,3.278-1.208,3.278-3.624v-3.364h8.28Z" fill="#a3a3a3"/>
      <path d="m88.587,0h16.217c6.325,0,9.488,3.535,9.488,10.609v15.267c0,5.407-1.638,8.828-4.917,10.266l5.779,25.792h-7.85l-5.434-25.016h-5.003v25.016h-8.28V0Zm8.28,29.846h5.434c2.472,0,3.71-1.495,3.71-4.486v-13.37c0-2.989-1.238-4.485-3.71-4.485h-5.434v22.341Z" fill="#a3a3a3"/>
      <path d="m130.767,61.934c-6.672,0-10.007-3.507-10.007-10.524V10.609c0-7.074,3.306-10.609,9.92-10.609h7.936c6.611,0,9.919,3.535,9.919,10.609v40.801c0,7.018-3.335,10.524-10.005,10.524h-7.763Zm1.984-7.504h4.226c2.185,0,3.278-1.208,3.278-3.624V11.127c0-2.416-1.237-3.622-3.709-3.622h-3.882c-2.416,0-3.622,1.206-3.622,3.622v39.679c0,2.416,1.235,3.624,3.709,3.624Z" fill="#a3a3a3"/>
      <path d="m171.739,16.647v-5.434c0-2.472-1.208-3.709-3.624-3.709h-1.293c-2.359,0-3.537,1.237-3.537,3.709v10.264c0,1.152.23,1.927.691,2.329.459.403,1.208.922,2.242,1.553l7.85,4.228c1.725.978,2.947,1.739,3.666,2.285.718.548,1.279,1.208,1.681,1.984.402.777.604,2.258.604,4.442v13.199c0,6.958-3.335,10.437-10.005,10.437h-5.09c-6.613,0-9.919-3.796-9.919-11.387v-3.105h8.28v3.364c0,2.416,1.235,3.624,3.709,3.624h1.467c2.185,0,3.278-1.208,3.278-3.624v-10.523c0-1.15-.231-1.926-.691-2.329-.461-.402-1.208-.92-2.242-1.553l-7.85-4.4c-1.725-.919-2.976-1.695-3.751-2.329-.777-.631-1.337-1.451-1.683-2.458-.345-1.006-.517-2.314-.517-3.925v-12.68c0-7.074,3.306-10.609,9.919-10.609h5.177c6.611,0,9.919,3.535,9.919,10.609v6.038h-8.28Z" fill="#a3a3a3"/>
      <path d="m202.793,16.647v-5.434c0-2.472-1.208-3.709-3.624-3.709h-1.293c-2.359,0-3.537,1.237-3.537,3.709v10.264c0,1.152.23,1.927.691,2.329.459.403,1.208.922,2.242,1.553l7.85,4.228c1.725.978,2.947,1.739,3.666,2.285.718.548,1.279,1.208,1.681,1.984.402.777.604,2.258.604,4.442v13.199c0,6.958-3.335,10.437-10.005,10.437h-5.09c-6.613,0-9.919-3.796-9.919-11.387v-3.105h8.28v3.364c0,2.416,1.235,3.624,3.709,3.624h1.467c2.185,0,3.278-1.208,3.278-3.624v-10.523c0-1.15-.231-1.926-.691-2.329-.461-.402-1.208-.92-2.242-1.553l-7.85-4.4c-1.725-.919-2.976-1.695-3.751-2.329-.777-.631-1.337-1.451-1.683-2.458-.345-1.006-.517-2.314-.517-3.925v-12.68c0-7.074,3.306-10.609,9.919-10.609h5.177c6.611,0,9.919,3.535,9.919,10.609v6.038h-8.28Z" fill="#a3a3a3"/>
      <path d="m217.974,61.934V0h20.53v7.504h-12.249v18.804h10.869v7.504h-10.869v20.616h12.249v7.504h-20.53Z" fill="#a3a3a3"/>
    </g>
  </g>
</svg>